<svg width="612" height="206" viewBox="0 0 612 206" fill="none" xmlns="http://www.w3.org/2000/svg">
<g clip-path="url(#clip0_0_1)">
<circle cx="569" cy="161" r="9" fill="#AAFF00"/>
<mask id="path-2-outside-1_0_1" maskUnits="userSpaceOnUse" x="30" y="40" width="454" height="105" fill="black">
<rect fill="white" x="30" y="40" width="454" height="105"/>
<path d="M36.438 144L43.445 120.834H31.576V102.101H49.165L55.6 81.938H35.723V63.205H61.606L68.899 41.04H88.061L80.482 63.205H105.65L112.943 41.04H131.962L124.383 63.205H135.251V81.938H118.52L112.085 102.101H131.104V120.834H105.936L99.215 144H80.196L87.346 120.834H62.035L55.314 144H36.438ZM68.184 102.101H93.066L99.644 81.938H74.619L68.184 102.101ZM161.402 144C157.779 144 154.443 143.094 151.392 141.283C148.437 139.472 146.053 137.088 144.242 134.133C142.431 131.082 141.525 127.746 141.525 124.123V112.397H160.401V123.265C160.401 123.742 160.544 124.171 160.83 124.552C161.211 124.838 161.64 124.981 162.117 124.981H223.607C224.084 124.981 224.513 124.838 224.894 124.552C225.275 124.171 225.466 123.742 225.466 123.265V41.04H244.485V124.123C244.485 127.746 243.579 131.082 241.768 134.133C239.957 137.088 237.526 139.472 234.475 141.283C231.52 143.094 228.231 144 224.608 144H161.402ZM260.826 144V60.917C260.826 57.2943 261.732 54.0053 263.543 51.05C265.355 47.9993 267.738 45.5683 270.693 43.757C273.744 41.9457 277.081 41.04 280.703 41.04H343.766C347.389 41.04 350.726 41.9457 353.776 43.757C356.827 45.5683 359.258 47.9993 361.069 51.05C362.881 54.0053 363.786 57.2943 363.786 60.917V144H344.767V109.394H279.702V144H260.826ZM279.702 90.518H344.767V61.775C344.767 61.2983 344.577 60.917 344.195 60.631C343.814 60.2497 343.385 60.059 342.908 60.059H281.418C280.942 60.059 280.513 60.2497 280.131 60.631C279.845 60.917 279.702 61.2983 279.702 61.775V90.518ZM462.161 144L431.13 106.963H455.869L482.753 138.709V144H462.161ZM380.079 144V41.183H463.019C466.642 41.183 469.979 42.0887 473.029 43.9C476.08 45.7113 478.511 48.1423 480.322 51.193C482.134 54.1483 483.039 57.4373 483.039 61.06V88.802C483.039 92.4247 482.134 95.7613 480.322 98.812C478.511 101.863 476.08 104.294 473.029 106.105C469.979 107.821 466.642 108.679 463.019 108.679L398.955 108.822V144H380.079ZM400.671 89.66H462.161C462.638 89.66 463.067 89.517 463.448 89.231C463.83 88.945 464.02 88.5637 464.02 88.087V61.775C464.02 61.2983 463.83 60.917 463.448 60.631C463.067 60.2497 462.638 60.059 462.161 60.059H400.671C400.195 60.059 399.766 60.2497 399.384 60.631C399.098 60.917 398.955 61.2983 398.955 61.775V88.087C398.955 88.5637 399.098 88.945 399.384 89.231C399.766 89.517 400.195 89.66 400.671 89.66Z"/>
</mask>
<path d="M36.438 144L35.6723 143.768L35.3602 144.8H36.438V144ZM43.445 120.834L44.2107 121.066L44.5228 120.034H43.445V120.834ZM31.576 120.834H30.776V121.634H31.576V120.834ZM31.576 102.101V101.301H30.776V102.101H31.576ZM49.165 102.101V102.901H49.7494L49.9271 102.344L49.165 102.101ZM55.6 81.938L56.3621 82.1812L56.6951 81.138H55.6V81.938ZM35.723 81.938H34.923V82.738H35.723V81.938ZM35.723 63.205V62.405H34.923V63.205H35.723ZM61.606 63.205V64.005H62.185L62.3659 63.455L61.606 63.205ZM68.899 41.04V40.24H68.32L68.1391 40.79L68.899 41.04ZM88.061 41.04L88.818 41.2988L89.18 40.24H88.061V41.04ZM80.482 63.205L79.725 62.9462L79.363 64.005H80.482V63.205ZM105.65 63.205V64.005H106.229L106.41 63.455L105.65 63.205ZM112.943 41.04V40.24H112.364L112.183 40.79L112.943 41.04ZM131.962 41.04L132.719 41.2988L133.081 40.24H131.962V41.04ZM124.383 63.205L123.626 62.9462L123.264 64.005H124.383V63.205ZM135.251 63.205H136.051V62.405H135.251V63.205ZM135.251 81.938V82.738H136.051V81.938H135.251ZM118.52 81.938V81.138H117.936L117.758 81.6948L118.52 81.938ZM112.085 102.101L111.323 101.858L110.99 102.901H112.085V102.101ZM131.104 102.101H131.904V101.301H131.104V102.101ZM131.104 120.834V121.634H131.904V120.834H131.104ZM105.936 120.834V120.034H105.335L105.168 120.611L105.936 120.834ZM99.215 144V144.8H99.8159L99.9833 144.223L99.215 144ZM80.196 144L79.4316 143.764L79.1119 144.8H80.196V144ZM87.346 120.834L88.1104 121.07L88.4302 120.034H87.346V120.834ZM62.035 120.834V120.034H61.4341L61.2667 120.611L62.035 120.834ZM55.314 144V144.8H55.9149L56.0823 144.223L55.314 144ZM68.184 102.101L67.4219 101.858L67.0889 102.901H68.184V102.101ZM93.066 102.101V102.901H93.6465L93.8266 102.349L93.066 102.101ZM99.644 81.938L100.405 82.1861L100.746 81.138H99.644V81.938ZM74.619 81.938V81.138H74.0346L73.8569 81.6948L74.619 81.938ZM37.2037 144.232L44.2107 121.066L42.6793 120.602L35.6723 143.768L37.2037 144.232ZM43.445 120.034H31.576V121.634H43.445V120.034ZM32.376 120.834V102.101H30.776V120.834H32.376ZM31.576 102.901H49.165V101.301H31.576V102.901ZM49.9271 102.344L56.3621 82.1812L54.8379 81.6948L48.4029 101.858L49.9271 102.344ZM55.6 81.138H35.723V82.738H55.6V81.138ZM36.523 81.938V63.205H34.923V81.938H36.523ZM35.723 64.005H61.606V62.405H35.723V64.005ZM62.3659 63.455L69.6589 41.29L68.1391 40.79L60.8461 62.955L62.3659 63.455ZM68.899 41.84H88.061V40.24H68.899V41.84ZM87.304 40.7812L79.725 62.9462L81.239 63.4638L88.818 41.2988L87.304 40.7812ZM80.482 64.005H105.65V62.405H80.482V64.005ZM106.41 63.455L113.703 41.29L112.183 40.79L104.89 62.955L106.41 63.455ZM112.943 41.84H131.962V40.24H112.943V41.84ZM131.205 40.7812L123.626 62.9462L125.14 63.4638L132.719 41.2988L131.205 40.7812ZM124.383 64.005H135.251V62.405H124.383V64.005ZM134.451 63.205V81.938H136.051V63.205H134.451ZM135.251 81.138H118.52V82.738H135.251V81.138ZM117.758 81.6948L111.323 101.858L112.847 102.344L119.282 82.1812L117.758 81.6948ZM112.085 102.901H131.104V101.301H112.085V102.901ZM130.304 102.101V120.834H131.904V102.101H130.304ZM131.104 120.034H105.936V121.634H131.104V120.034ZM105.168 120.611L98.4467 143.777L99.9833 144.223L106.704 121.057L105.168 120.611ZM99.215 143.2H80.196V144.8H99.215V143.2ZM80.9604 144.236L88.1104 121.07L86.5816 120.598L79.4316 143.764L80.9604 144.236ZM87.346 120.034H62.035V121.634H87.346V120.034ZM61.2667 120.611L54.5457 143.777L56.0823 144.223L62.8033 121.057L61.2667 120.611ZM55.314 143.2H36.438V144.8H55.314V143.2ZM68.184 102.901H93.066V101.301H68.184V102.901ZM93.8266 102.349L100.405 82.1861L98.8835 81.6899L92.3055 101.853L93.8266 102.349ZM99.644 81.138H74.619V82.738H99.644V81.138ZM73.8569 81.6948L67.4219 101.858L68.9461 102.344L75.3811 82.1812L73.8569 81.6948ZM151.392 141.283L150.974 141.965L150.984 141.971L151.392 141.283ZM144.242 134.133L143.554 134.541L143.56 134.551L144.242 134.133ZM141.525 112.397V111.597H140.725V112.397H141.525ZM160.401 112.397H161.201V111.597H160.401V112.397ZM160.83 124.552L160.19 125.032L160.259 125.123L160.35 125.192L160.83 124.552ZM224.894 124.552L225.374 125.192L225.42 125.158L225.46 125.118L224.894 124.552ZM225.466 41.04V40.24H224.666V41.04H225.466ZM244.485 41.04H245.285V40.24H244.485V41.04ZM241.768 134.133L242.45 134.551L242.456 134.541L241.768 134.133ZM234.475 141.283L234.067 140.595L234.057 140.601L234.475 141.283ZM161.402 143.2C157.92 143.2 154.725 142.331 151.801 140.595L150.984 141.971C154.161 143.857 157.639 144.8 161.402 144.8V143.2ZM151.81 140.601C148.962 138.856 146.67 136.563 144.924 133.715L143.56 134.551C145.437 137.614 147.911 140.088 150.974 141.965L151.81 140.601ZM144.93 133.725C143.194 130.8 142.325 127.605 142.325 124.123H140.725C140.725 127.886 141.668 131.364 143.554 134.541L144.93 133.725ZM142.325 124.123V112.397H140.725V124.123H142.325ZM141.525 113.197H160.401V111.597H141.525V113.197ZM159.601 112.397V123.265H161.201V112.397H159.601ZM159.601 123.265C159.601 123.915 159.8 124.512 160.19 125.032L161.47 124.072C161.288 123.829 161.201 123.569 161.201 123.265H159.601ZM160.35 125.192C160.87 125.582 161.467 125.781 162.117 125.781V124.181C161.814 124.181 161.553 124.094 161.31 123.912L160.35 125.192ZM162.117 125.781H223.607V124.181H162.117V125.781ZM223.607 125.781C224.257 125.781 224.854 125.582 225.374 125.192L224.414 123.912C224.171 124.094 223.911 124.181 223.607 124.181V125.781ZM225.46 125.118C225.97 124.608 226.266 123.982 226.266 123.265H224.666C224.666 123.501 224.581 123.734 224.328 123.986L225.46 125.118ZM226.266 123.265V41.04H224.666V123.265H226.266ZM225.466 41.84H244.485V40.24H225.466V41.84ZM243.685 41.04V124.123H245.285V41.04H243.685ZM243.685 124.123C243.685 127.605 242.817 130.8 241.08 133.725L242.456 134.541C244.342 131.364 245.285 127.886 245.285 124.123H243.685ZM241.086 133.715C239.344 136.557 237.008 138.849 234.067 140.595L234.884 141.971C238.043 140.095 240.569 137.62 242.45 134.551L241.086 133.715ZM234.057 140.601C231.233 142.332 228.09 143.2 224.608 143.2V144.8C228.371 144.8 231.806 143.857 234.893 141.965L234.057 140.601ZM224.608 143.2H161.402V144.8H224.608V143.2ZM260.826 144H260.026V144.8H260.826V144ZM263.543 51.05L264.225 51.4681L264.231 51.4584L263.543 51.05ZM270.693 43.757L270.285 43.069L270.275 43.0749L270.693 43.757ZM353.776 43.757L353.368 44.4449L353.368 44.4449L353.776 43.757ZM361.069 51.05L360.381 51.4585L360.387 51.468L361.069 51.05ZM363.786 144V144.8H364.586V144H363.786ZM344.767 144H343.967V144.8H344.767V144ZM344.767 109.394H345.567V108.594H344.767V109.394ZM279.702 109.394V108.594H278.902V109.394H279.702ZM279.702 144V144.8H280.502V144H279.702ZM279.702 90.518H278.902V91.318H279.702V90.518ZM344.767 90.518V91.318H345.567V90.518H344.767ZM344.195 60.631L343.63 61.1967L343.67 61.2369L343.715 61.271L344.195 60.631ZM280.131 60.631L280.697 61.1967L280.697 61.1967L280.131 60.631ZM261.626 144V60.917H260.026V144H261.626ZM261.626 60.917C261.626 57.4349 262.495 54.2918 264.225 51.468L262.861 50.6319C260.969 53.7189 260.026 57.1537 260.026 60.917H261.626ZM264.231 51.4584C265.978 48.5168 268.269 46.1808 271.111 44.4391L270.275 43.0749C267.206 44.9558 264.731 47.4818 262.855 50.6416L264.231 51.4584ZM271.102 44.4449C274.026 42.7085 277.221 41.84 280.703 41.84V40.24C276.94 40.24 273.462 41.1828 270.285 43.0691L271.102 44.4449ZM280.703 41.84H343.766V40.24H280.703V41.84ZM343.766 41.84C347.248 41.84 350.443 42.7085 353.368 44.4449L354.185 43.0691C351.008 41.1828 347.529 40.24 343.766 40.24V41.84ZM353.368 44.4449C356.303 46.1879 358.638 48.5228 360.381 51.4584L361.757 50.6416C359.877 47.4758 357.35 44.9488 354.185 43.0691L353.368 44.4449ZM360.387 51.468C362.118 54.2918 362.986 57.4349 362.986 60.917H364.586C364.586 57.1537 363.643 53.7189 361.751 50.6319L360.387 51.468ZM362.986 60.917V144H364.586V60.917H362.986ZM363.786 143.2H344.767V144.8H363.786V143.2ZM345.567 144V109.394H343.967V144H345.567ZM344.767 108.594H279.702V110.194H344.767V108.594ZM278.902 109.394V144H280.502V109.394H278.902ZM279.702 143.2H260.826V144.8H279.702V143.2ZM279.702 91.318H344.767V89.718H279.702V91.318ZM345.567 90.518V61.775H343.967V90.518H345.567ZM345.567 61.775C345.567 61.0465 345.258 60.4281 344.675 59.991L343.715 61.271C343.895 61.4059 343.967 61.5501 343.967 61.775H345.567ZM344.761 60.0653C344.251 59.5554 343.626 59.259 342.908 59.259V60.859C343.144 60.859 343.377 60.9439 343.63 61.1967L344.761 60.0653ZM342.908 59.259H281.418V60.859H342.908V59.259ZM281.418 59.259C280.701 59.259 280.075 59.5554 279.566 60.0653L280.697 61.1967C280.95 60.9439 281.182 60.859 281.418 60.859V59.259ZM279.566 60.0653C279.103 60.5279 278.902 61.1269 278.902 61.775H280.502C280.502 61.4697 280.588 61.3061 280.697 61.1967L279.566 60.0653ZM278.902 61.775V90.518H280.502V61.775H278.902ZM462.161 144L461.548 144.514L461.788 144.8H462.161V144ZM431.13 106.963V106.163H429.416L430.517 107.477L431.13 106.963ZM455.869 106.963L456.48 106.446L456.24 106.163H455.869V106.963ZM482.753 138.709H483.553V138.416L483.364 138.192L482.753 138.709ZM482.753 144V144.8H483.553V144H482.753ZM380.079 144H379.279V144.8H380.079V144ZM380.079 41.183V40.383H379.279V41.183H380.079ZM480.322 51.193L479.634 51.6015L479.64 51.611L480.322 51.193ZM473.029 106.105L473.422 106.802L473.43 106.798L473.438 106.793L473.029 106.105ZM463.019 108.679V107.879L463.018 107.879L463.019 108.679ZM398.955 108.822L398.954 108.022L398.155 108.024V108.822H398.955ZM398.955 144V144.8H399.755V144H398.955ZM463.448 89.231L463.928 89.871L463.928 89.871L463.448 89.231ZM463.448 60.631L462.883 61.1967L462.923 61.2369L462.968 61.271L463.448 60.631ZM399.384 60.631L399.95 61.1967L399.95 61.1967L399.384 60.631ZM399.384 89.231L398.819 89.7967L398.859 89.8369L398.904 89.871L399.384 89.231ZM462.775 143.486L431.744 106.449L430.517 107.477L461.548 144.514L462.775 143.486ZM431.13 107.763H455.869V106.163H431.13V107.763ZM455.259 107.48L482.143 139.226L483.364 138.192L456.48 106.446L455.259 107.48ZM481.953 138.709V144H483.553V138.709H481.953ZM482.753 143.2H462.161V144.8H482.753V143.2ZM380.879 144V41.183H379.279V144H380.879ZM380.079 41.983H463.019V40.383H380.079V41.983ZM463.019 41.983C466.501 41.983 469.697 42.8515 472.621 44.5879L473.438 43.2121C470.261 41.3258 466.783 40.383 463.019 40.383V41.983ZM472.621 44.5879C475.556 46.3309 477.891 48.6658 479.634 51.6014L481.01 50.7846C479.131 47.6188 476.603 45.0918 473.438 43.2121L472.621 44.5879ZM479.64 51.611C481.371 54.4348 482.239 57.5779 482.239 61.06H483.839C483.839 57.2967 482.896 53.8619 481.004 50.7749L479.64 51.611ZM482.239 61.06V88.802H483.839V61.06H482.239ZM482.239 88.802C482.239 92.2841 481.371 95.4792 479.634 98.4036L481.01 99.2204C482.897 96.0435 483.839 92.5652 483.839 88.802H482.239ZM479.634 98.4036C477.891 101.339 475.556 103.674 472.621 105.417L473.438 106.793C476.603 104.913 479.131 102.386 481.01 99.2204L479.634 98.4036ZM472.637 105.408C469.71 107.054 466.51 107.879 463.019 107.879V109.479C466.774 109.479 470.247 108.588 473.422 106.802L472.637 105.408ZM463.018 107.879L398.954 108.022L398.957 109.622L463.021 109.479L463.018 107.879ZM398.155 108.822V144H399.755V108.822H398.155ZM398.955 143.2H380.079V144.8H398.955V143.2ZM400.671 90.46H462.161V88.86H400.671V90.46ZM462.161 90.46C462.811 90.46 463.408 90.2609 463.928 89.871L462.968 88.591C462.725 88.7731 462.465 88.86 462.161 88.86V90.46ZM463.928 89.871C464.511 89.4339 464.82 88.8155 464.82 88.087H463.22C463.22 88.3119 463.148 88.4561 462.968 88.591L463.928 89.871ZM464.82 88.087V61.775H463.22V88.087H464.82ZM464.82 61.775C464.82 61.0465 464.511 60.4281 463.928 59.991L462.968 61.271C463.148 61.4059 463.22 61.5501 463.22 61.775H464.82ZM464.014 60.0653C463.504 59.5554 462.879 59.259 462.161 59.259V60.859C462.397 60.859 462.63 60.9439 462.883 61.1967L464.014 60.0653ZM462.161 59.259H400.671V60.859H462.161V59.259ZM400.671 59.259C399.954 59.259 399.328 59.5554 398.819 60.0653L399.95 61.1967C400.203 60.9439 400.435 60.859 400.671 60.859V59.259ZM398.819 60.0653C398.356 60.5279 398.155 61.1269 398.155 61.775H399.755C399.755 61.4697 399.841 61.3061 399.95 61.1967L398.819 60.0653ZM398.155 61.775V88.087H399.755V61.775H398.155ZM398.155 88.087C398.155 88.7351 398.356 89.3341 398.819 89.7967L399.95 88.6653C399.841 88.5559 399.755 88.3923 399.755 88.087H398.155ZM398.904 89.871C399.424 90.2609 400.022 90.46 400.671 90.46V88.86C400.368 88.86 400.107 88.7731 399.864 88.591L398.904 89.871Z" fill="#3D4038" mask="url(#path-2-outside-1_0_1)"/>
<path d="M9.438 170L16.445 146.834H4.576V128.101H22.165L28.6 107.938H8.723V89.205H34.606L41.899 67.04H61.061L53.482 89.205H78.65L85.943 67.04H104.962L97.383 89.205H108.251V107.938H91.52L85.085 128.101H104.104V146.834H78.936L72.215 170H53.196L60.346 146.834H35.035L28.314 170H9.438ZM41.184 128.101H66.066L72.644 107.938H47.619L41.184 128.101ZM134.402 170C130.779 170 127.443 169.094 124.392 167.283C121.437 165.472 119.053 163.088 117.242 160.133C115.431 157.082 114.525 153.746 114.525 150.123V138.397H133.401V149.265C133.401 149.742 133.544 150.171 133.83 150.552C134.211 150.838 134.64 150.981 135.117 150.981H196.607C197.084 150.981 197.513 150.838 197.894 150.552C198.275 150.171 198.466 149.742 198.466 149.265V67.04H217.485V150.123C217.485 153.746 216.579 157.082 214.768 160.133C212.957 163.088 210.526 165.472 207.475 167.283C204.52 169.094 201.231 170 197.608 170H134.402ZM233.826 170V86.917C233.826 83.2943 234.732 80.0053 236.543 77.05C238.355 73.9993 240.738 71.5683 243.693 69.757C246.744 67.9457 250.081 67.04 253.703 67.04H316.766C320.389 67.04 323.726 67.9457 326.776 69.757C329.827 71.5683 332.258 73.9993 334.069 77.05C335.881 80.0053 336.786 83.2943 336.786 86.917V170H317.767V135.394H252.702V170H233.826ZM252.702 116.518H317.767V87.775C317.767 87.2983 317.577 86.917 317.195 86.631C316.814 86.2497 316.385 86.059 315.908 86.059H254.418C253.942 86.059 253.513 86.2497 253.131 86.631C252.845 86.917 252.702 87.2983 252.702 87.775V116.518ZM435.161 170L404.13 132.963H428.869L455.753 164.709V170H435.161ZM353.079 170V67.183H436.019C439.642 67.183 442.979 68.0887 446.029 69.9C449.08 71.7113 451.511 74.1423 453.322 77.193C455.134 80.1483 456.039 83.4373 456.039 87.06V114.802C456.039 118.425 455.134 121.761 453.322 124.812C451.511 127.863 449.08 130.294 446.029 132.105C442.979 133.821 439.642 134.679 436.019 134.679L371.955 134.822V170H353.079ZM373.671 115.66H435.161C435.638 115.66 436.067 115.517 436.448 115.231C436.83 114.945 437.02 114.564 437.02 114.087V87.775C437.02 87.2983 436.83 86.917 436.448 86.631C436.067 86.2497 435.638 86.059 435.161 86.059H373.671C373.195 86.059 372.766 86.2497 372.384 86.631C372.098 86.917 371.955 87.2983 371.955 87.775V114.087C371.955 114.564 372.098 114.945 372.384 115.231C372.766 115.517 373.195 115.66 373.671 115.66Z" fill="white"/>
<circle cx="510" cy="161" r="9" fill="#AAFF00"/>
<ellipse cx="539.5" cy="161" rx="8.5" ry="9" fill="#AAFF00"/>
</g>
<defs>
<clipPath id="clip0_0_1">
<rect width="612" height="206" fill="white"/>
</clipPath>
</defs>
</svg>
