<svg width="397" height="132" viewBox="0 0 397 132" fill="none" xmlns="http://www.w3.org/2000/svg">
<g clip-path="url(#clip0_0_1)">
<circle cx="385" cy="119" r="6" fill="#AAFF00"/>
<mask id="path-2-outside-1_0_1" maskUnits="userSpaceOnUse" x="21" y="34" width="312" height="73" fill="black">
<rect fill="white" x="21" y="34" width="312" height="73"/>
<path d="M25.468 106L30.27 90.124H22.136V77.286H34.19L38.6 63.468H24.978V50.63H42.716L47.714 35.44H60.846L55.652 50.63H72.9L77.898 35.44H90.932L85.738 50.63H93.186V63.468H81.72L77.31 77.286H90.344V90.124H73.096L68.49 106H55.456L60.356 90.124H43.01L38.404 106H25.468ZM47.224 77.286H64.276L68.784 63.468H51.634L47.224 77.286ZM111.108 106C108.625 106 106.338 105.379 104.248 104.138C102.222 102.897 100.589 101.263 99.3478 99.238C98.1064 97.1473 97.4858 94.8607 97.4858 92.378V84.342H110.422V91.79C110.422 92.1167 110.52 92.4107 110.716 92.672C110.977 92.868 111.271 92.966 111.598 92.966H153.738C154.064 92.966 154.358 92.868 154.62 92.672C154.881 92.4107 155.012 92.1167 155.012 91.79V35.44H168.046V92.378C168.046 94.8607 167.425 97.1473 166.184 99.238C164.942 101.263 163.276 102.897 161.186 104.138C159.16 105.379 156.906 106 154.424 106H111.108ZM179.245 106V49.062C179.245 46.5793 179.865 44.3253 181.107 42.3C182.348 40.2093 183.981 38.5433 186.007 37.302C188.097 36.0607 190.384 35.44 192.867 35.44H236.085C238.567 35.44 240.854 36.0607 242.945 37.302C245.035 38.5433 246.701 40.2093 247.943 42.3C249.184 44.3253 249.805 46.5793 249.805 49.062V106H236.771V82.284H192.181V106H179.245ZM192.181 69.348H236.771V49.65C236.771 49.3233 236.64 49.062 236.379 48.866C236.117 48.6047 235.823 48.474 235.497 48.474H193.357C193.03 48.474 192.736 48.6047 192.475 48.866C192.279 49.062 192.181 49.3233 192.181 49.65V69.348ZM317.222 106L295.956 80.618H312.91L331.334 102.374V106H317.222ZM260.97 106V35.538H317.81C320.293 35.538 322.58 36.1587 324.67 37.4C326.761 38.6413 328.427 40.3073 329.668 42.398C330.91 44.4233 331.53 46.6773 331.53 49.16V68.172C331.53 70.6547 330.91 72.9413 329.668 75.032C328.427 77.1227 326.761 78.7887 324.67 80.03C322.58 81.206 320.293 81.794 317.81 81.794L273.906 81.892V106H260.97ZM275.082 68.76H317.222C317.549 68.76 317.843 68.662 318.104 68.466C318.366 68.27 318.496 68.0087 318.496 67.682V49.65C318.496 49.3233 318.366 49.062 318.104 48.866C317.843 48.6047 317.549 48.474 317.222 48.474H275.082C274.756 48.474 274.462 48.6047 274.2 48.866C274.004 49.062 273.906 49.3233 273.906 49.65V67.682C273.906 68.0087 274.004 68.27 274.2 68.466C274.462 68.662 274.756 68.76 275.082 68.76Z"/>
</mask>
<path d="M25.468 106L24.7023 105.768L24.3902 106.8H25.468V106ZM30.27 90.124L31.0357 90.3556L31.3478 89.324H30.27V90.124ZM22.136 90.124H21.336V90.924H22.136V90.124ZM22.136 77.286V76.486H21.336V77.286H22.136ZM34.19 77.286V78.086H34.7744L34.9521 77.5292L34.19 77.286ZM38.6 63.468L39.3621 63.7112L39.6951 62.668H38.6V63.468ZM24.978 63.468H24.178V64.268H24.978V63.468ZM24.978 50.63V49.83H24.178V50.63H24.978ZM42.716 50.63V51.43H43.295L43.4759 50.88L42.716 50.63ZM47.714 35.44V34.64H47.135L46.9541 35.19L47.714 35.44ZM60.846 35.44L61.603 35.6988L61.965 34.64H60.846V35.44ZM55.652 50.63L54.895 50.3712L54.533 51.43H55.652V50.63ZM72.9 50.63V51.43H73.479L73.6599 50.88L72.9 50.63ZM77.898 35.44V34.64H77.319L77.1381 35.19L77.898 35.44ZM90.932 35.44L91.689 35.6988L92.051 34.64H90.932V35.44ZM85.738 50.63L84.981 50.3712L84.619 51.43H85.738V50.63ZM93.186 50.63H93.986V49.83H93.186V50.63ZM93.186 63.468V64.268H93.986V63.468H93.186ZM81.72 63.468V62.668H81.1356L80.9579 63.2248L81.72 63.468ZM77.31 77.286L76.5479 77.0428L76.2149 78.086H77.31V77.286ZM90.344 77.286H91.144V76.486H90.344V77.286ZM90.344 90.124V90.924H91.144V90.124H90.344ZM73.096 90.124V89.324H72.4951L72.3277 89.9011L73.096 90.124ZM68.49 106V106.8H69.0909L69.2583 106.223L68.49 106ZM55.456 106L54.6916 105.764L54.3718 106.8H55.456V106ZM60.356 90.124L61.1204 90.3599L61.4402 89.324H60.356V90.124ZM43.01 90.124V89.324H42.4091L42.2417 89.9011L43.01 90.124ZM38.404 106V106.8H39.0049L39.1723 106.223L38.404 106ZM47.224 77.286L46.4619 77.0428L46.1289 78.086H47.224V77.286ZM64.276 77.286V78.086H64.8565L65.0366 77.5341L64.276 77.286ZM68.784 63.468L69.5446 63.7161L69.8865 62.668H68.784V63.468ZM51.634 63.468V62.668H51.0496L50.8719 63.2248L51.634 63.468ZM26.2337 106.232L31.0357 90.3556L29.5043 89.8924L24.7023 105.768L26.2337 106.232ZM30.27 89.324H22.136V90.924H30.27V89.324ZM22.936 90.124V77.286H21.336V90.124H22.936ZM22.136 78.086H34.19V76.486H22.136V78.086ZM34.9521 77.5292L39.3621 63.7112L37.8379 63.2248L33.4279 77.0428L34.9521 77.5292ZM38.6 62.668H24.978V64.268H38.6V62.668ZM25.778 63.468V50.63H24.178V63.468H25.778ZM24.978 51.43H42.716V49.83H24.978V51.43ZM43.4759 50.88L48.4739 35.69L46.9541 35.19L41.9561 50.38L43.4759 50.88ZM47.714 36.24H60.846V34.64H47.714V36.24ZM60.089 35.1812L54.895 50.3712L56.409 50.8888L61.603 35.6988L60.089 35.1812ZM55.652 51.43H72.9V49.83H55.652V51.43ZM73.6599 50.88L78.6579 35.69L77.1381 35.19L72.1401 50.38L73.6599 50.88ZM77.898 36.24H90.932V34.64H77.898V36.24ZM90.175 35.1812L84.981 50.3712L86.495 50.8888L91.689 35.6988L90.175 35.1812ZM85.738 51.43H93.186V49.83H85.738V51.43ZM92.386 50.63V63.468H93.986V50.63H92.386ZM93.186 62.668H81.72V64.268H93.186V62.668ZM80.9579 63.2248L76.5479 77.0428L78.0721 77.5292L82.4821 63.7112L80.9579 63.2248ZM77.31 78.086H90.344V76.486H77.31V78.086ZM89.544 77.286V90.124H91.144V77.286H89.544ZM90.344 89.324H73.096V90.924H90.344V89.324ZM72.3277 89.9011L67.7217 105.777L69.2583 106.223L73.8643 90.3469L72.3277 89.9011ZM68.49 105.2H55.456V106.8H68.49V105.2ZM56.2204 106.236L61.1204 90.3599L59.5916 89.8881L54.6916 105.764L56.2204 106.236ZM60.356 89.324H43.01V90.924H60.356V89.324ZM42.2417 89.9011L37.6357 105.777L39.1723 106.223L43.7783 90.3469L42.2417 89.9011ZM38.404 105.2H25.468V106.8H38.404V105.2ZM47.224 78.086H64.276V76.486H47.224V78.086ZM65.0366 77.5341L69.5446 63.7161L68.0235 63.2199L63.5155 77.0379L65.0366 77.5341ZM68.784 62.668H51.634V64.268H68.784V62.668ZM50.8719 63.2248L46.4619 77.0428L47.9861 77.5292L52.3961 63.7112L50.8719 63.2248ZM104.248 104.138L103.83 104.82L103.839 104.826L104.248 104.138ZM99.3478 99.238L98.6598 99.6465L98.6657 99.656L99.3478 99.238ZM97.4858 84.342V83.542H96.6858V84.342H97.4858ZM110.422 84.342H111.222V83.542H110.422V84.342ZM110.716 92.672L110.076 93.152L110.144 93.2434L110.236 93.312L110.716 92.672ZM154.62 92.672L155.1 93.312L155.145 93.2779L155.185 93.2377L154.62 92.672ZM155.012 35.44V34.64H154.212V35.44H155.012ZM168.046 35.44H168.846V34.64H168.046V35.44ZM166.184 99.238L166.866 99.6561L166.872 99.6464L166.184 99.238ZM161.186 104.138L160.777 103.45L160.768 103.456L161.186 104.138ZM111.108 105.2C108.766 105.2 106.621 104.616 104.656 103.45L103.839 104.826C106.056 106.142 108.485 106.8 111.108 106.8V105.2ZM104.666 103.456C102.748 102.281 101.205 100.738 100.03 98.8199L98.6657 99.656C99.973 101.789 101.697 103.513 103.83 104.82L104.666 103.456ZM100.036 98.8296C98.8693 96.8652 98.2858 94.7201 98.2858 92.378H96.6858C96.6858 95.0012 97.3435 97.4295 98.6599 99.6464L100.036 98.8296ZM98.2858 92.378V84.342H96.6858V92.378H98.2858ZM97.4858 85.142H110.422V83.542H97.4858V85.142ZM109.622 84.342V91.79H111.222V84.342H109.622ZM109.622 91.79C109.622 92.2898 109.776 92.7522 110.076 93.152L111.356 92.192C111.264 92.0691 111.222 91.9436 111.222 91.79H109.622ZM110.236 93.312C110.636 93.6119 111.098 93.766 111.598 93.766V92.166C111.444 92.166 111.319 92.1241 111.196 92.032L110.236 93.312ZM111.598 93.766H153.738V92.166H111.598V93.766ZM153.738 93.766C154.238 93.766 154.7 93.6119 155.1 93.312L154.14 92.032C154.017 92.1241 153.891 92.166 153.738 92.166V93.766ZM155.185 93.2377C155.575 92.8478 155.812 92.3574 155.812 91.79H154.212C154.212 91.8759 154.187 91.9735 154.054 92.1063L155.185 93.2377ZM155.812 91.79V35.44H154.212V91.79H155.812ZM155.012 36.24H168.046V34.64H155.012V36.24ZM167.246 35.44V92.378H168.846V35.44H167.246ZM167.246 92.378C167.246 94.7201 166.662 96.8652 165.496 98.8296L166.872 99.6464C168.188 97.4295 168.846 95.0012 168.846 92.378H167.246ZM165.502 98.8199C164.33 100.732 162.759 102.274 160.777 103.45L161.594 104.826C163.794 103.52 165.555 101.795 166.866 99.656L165.502 98.8199ZM160.768 103.456C158.874 104.617 156.766 105.2 154.424 105.2V106.8C157.047 106.8 159.447 106.142 161.604 104.82L160.768 103.456ZM154.424 105.2H111.108V106.8H154.424V105.2ZM179.245 106H178.445V106.8H179.245V106ZM181.107 42.3L181.789 42.7181L181.794 42.7084L181.107 42.3ZM186.007 37.302L185.598 36.614L185.588 36.6199L186.007 37.302ZM242.945 37.302L242.536 37.9899L242.536 37.9899L242.945 37.302ZM247.943 42.3L247.255 42.7085L247.26 42.718L247.943 42.3ZM249.805 106V106.8H250.605V106H249.805ZM236.771 106H235.971V106.8H236.771V106ZM236.771 82.284H237.571V81.484H236.771V82.284ZM192.181 82.284V81.484H191.381V82.284H192.181ZM192.181 106V106.8H192.981V106H192.181ZM192.181 69.348H191.381V70.148H192.181V69.348ZM236.771 69.348V70.148H237.571V69.348H236.771ZM236.379 48.866L235.813 49.4317L235.853 49.4719L235.899 49.506L236.379 48.866ZM192.475 48.866L193.04 49.4317L193.04 49.4317L192.475 48.866ZM180.045 106V49.062H178.445V106H180.045ZM180.045 49.062C180.045 46.7199 180.628 44.6118 181.789 42.718L180.424 41.8819C179.102 44.0389 178.445 46.4387 178.445 49.062H180.045ZM181.794 42.7084C182.971 40.7268 184.513 39.1558 186.425 37.9841L185.588 36.6199C183.45 37.9308 181.725 39.6918 180.419 41.8916L181.794 42.7084ZM186.415 37.9899C188.379 36.8235 190.524 36.24 192.867 36.24V34.64C190.243 34.64 187.815 35.2978 185.598 36.6141L186.415 37.9899ZM192.867 36.24H236.085V34.64H192.867V36.24ZM236.085 36.24C238.427 36.24 240.572 36.8235 242.536 37.9899L243.353 36.6141C241.136 35.2978 238.708 34.64 236.085 34.64V36.24ZM242.536 37.9899C244.512 39.1629 246.082 40.7328 247.255 42.7084L248.63 41.8916C247.321 39.6858 245.559 37.9238 243.353 36.6141L242.536 37.9899ZM247.26 42.718C248.421 44.6118 249.005 46.7199 249.005 49.062H250.605C250.605 46.4387 249.947 44.0389 248.625 41.8819L247.26 42.718ZM249.005 49.062V106H250.605V49.062H249.005ZM249.805 105.2H236.771V106.8H249.805V105.2ZM237.571 106V82.284H235.971V106H237.571ZM236.771 81.484H192.181V83.084H236.771V81.484ZM191.381 82.284V106H192.981V82.284H191.381ZM192.181 105.2H179.245V106.8H192.181V105.2ZM192.181 70.148H236.771V68.548H192.181V70.148ZM237.571 69.348V49.65H235.971V69.348H237.571ZM237.571 49.65C237.571 49.0715 237.321 48.5731 236.859 48.226L235.899 49.506C235.942 49.5384 235.953 49.5597 235.957 49.5668C235.961 49.5738 235.971 49.596 235.971 49.65H237.571ZM236.944 48.3003C236.554 47.9104 236.064 47.674 235.497 47.674V49.274C235.582 49.274 235.68 49.2989 235.813 49.4317L236.944 48.3003ZM235.497 47.674H193.357V49.274H235.497V47.674ZM193.357 47.674C192.789 47.674 192.299 47.9104 191.909 48.3003L193.04 49.4317C193.173 49.2989 193.271 49.274 193.357 49.274V47.674ZM191.909 48.3003C191.536 48.6729 191.381 49.1519 191.381 49.65H192.981C192.981 49.4947 193.021 49.4511 193.04 49.4317L191.909 48.3003ZM191.381 49.65V69.348H192.981V49.65H191.381ZM317.222 106L316.609 106.514L316.849 106.8H317.222V106ZM295.956 80.618V79.818H294.242L295.343 81.1318L295.956 80.618ZM312.91 80.618L313.521 80.101L313.281 79.818H312.91V80.618ZM331.334 102.374H332.134V102.081L331.945 101.857L331.334 102.374ZM331.334 106V106.8H332.134V106H331.334ZM260.97 106H260.17V106.8H260.97V106ZM260.97 35.538V34.738H260.17V35.538H260.97ZM329.668 42.398L328.98 42.8065L328.986 42.816L329.668 42.398ZM324.67 80.03L325.063 80.7273L325.071 80.7227L325.079 80.7179L324.67 80.03ZM317.81 81.794V80.994L317.809 80.994L317.81 81.794ZM273.906 81.892L273.905 81.092L273.106 81.0938V81.892H273.906ZM273.906 106V106.8H274.706V106H273.906ZM318.104 68.466L318.584 69.106L318.584 69.106L318.104 68.466ZM318.104 48.866L317.539 49.4317L317.579 49.4719L317.624 49.506L318.104 48.866ZM274.2 48.866L274.766 49.4317L274.766 49.4317L274.2 48.866ZM274.2 68.466L273.635 69.0317L273.675 69.0719L273.72 69.106L274.2 68.466ZM317.836 105.486L296.57 80.1042L295.343 81.1318L316.609 106.514L317.836 105.486ZM295.956 81.418H312.91V79.818H295.956V81.418ZM312.3 81.135L330.724 102.891L331.945 101.857L313.521 80.101L312.3 81.135ZM330.534 102.374V106H332.134V102.374H330.534ZM331.334 105.2H317.222V106.8H331.334V105.2ZM261.77 106V35.538H260.17V106H261.77ZM260.97 36.338H317.81V34.738H260.97V36.338ZM317.81 36.338C320.153 36.338 322.298 36.9215 324.262 38.0879L325.079 36.7121C322.862 35.3958 320.434 34.738 317.81 34.738V36.338ZM324.262 38.0879C326.238 39.2609 327.808 40.8308 328.981 42.8064L330.356 41.9896C329.047 39.7838 327.285 38.0218 325.079 36.7121L324.262 38.0879ZM328.986 42.816C330.147 44.7098 330.73 46.8179 330.73 49.16H332.33C332.33 46.5367 331.673 44.1369 330.351 41.9799L328.986 42.816ZM330.73 49.16V68.172H332.33V49.16H330.73ZM330.73 68.172C330.73 70.5141 330.147 72.6592 328.981 74.6236L330.356 75.4404C331.673 73.2235 332.33 70.7952 332.33 68.172H330.73ZM328.981 74.6236C327.808 76.5992 326.238 78.1691 324.262 79.3421L325.079 80.7179C327.285 79.4082 329.047 77.6462 330.356 75.4404L328.981 74.6236ZM324.278 79.3327C322.312 80.439 320.161 80.994 317.81 80.994V82.594C320.425 82.594 322.848 81.973 325.063 80.7273L324.278 79.3327ZM317.809 80.994L273.905 81.092L273.908 82.692L317.812 82.594L317.809 80.994ZM273.106 81.892V106H274.706V81.892H273.106ZM273.906 105.2H260.97V106.8H273.906V105.2ZM275.082 69.56H317.222V67.96H275.082V69.56ZM317.222 69.56C317.722 69.56 318.185 69.4059 318.584 69.106L317.624 67.826C317.502 67.9181 317.376 67.96 317.222 67.96V69.56ZM318.584 69.106C319.047 68.7589 319.296 68.2605 319.296 67.682H317.696C317.696 67.736 317.686 67.7582 317.683 67.7652C317.679 67.7723 317.668 67.7936 317.624 67.826L318.584 69.106ZM319.296 67.682V49.65H317.696V67.682H319.296ZM319.296 49.65C319.296 49.0715 319.047 48.5731 318.584 48.226L317.624 49.506C317.668 49.5384 317.679 49.5597 317.683 49.5668C317.686 49.5738 317.696 49.596 317.696 49.65H319.296ZM318.67 48.3003C318.28 47.9104 317.79 47.674 317.222 47.674V49.274C317.308 49.274 317.406 49.2989 317.539 49.4317L318.67 48.3003ZM317.222 47.674H275.082V49.274H317.222V47.674ZM275.082 47.674C274.515 47.674 274.025 47.9104 273.635 48.3003L274.766 49.4317C274.899 49.2989 274.996 49.274 275.082 49.274V47.674ZM273.635 48.3003C273.262 48.6729 273.106 49.1519 273.106 49.65H274.706C274.706 49.4947 274.747 49.4511 274.766 49.4317L273.635 48.3003ZM273.106 49.65V67.682H274.706V49.65H273.106ZM273.106 67.682C273.106 68.1801 273.262 68.6591 273.635 69.0317L274.766 67.9003C274.747 67.8809 274.706 67.8373 274.706 67.682H273.106ZM273.72 69.106C274.12 69.4059 274.583 69.56 275.082 69.56V67.96C274.929 67.96 274.803 67.9181 274.68 67.826L273.72 69.106Z" fill="#3D4038" mask="url(#path-2-outside-1_0_1)"/>
<path d="M6.468 125L11.27 109.124H3.136V96.286H15.19L19.6 82.468H5.978V69.63H23.716L28.714 54.44H41.846L36.652 69.63H53.9L58.898 54.44H71.932L66.738 69.63H74.186V82.468H62.72L58.31 96.286H71.344V109.124H54.096L49.49 125H36.456L41.356 109.124H24.01L19.404 125H6.468ZM28.224 96.286H45.276L49.784 82.468H32.634L28.224 96.286ZM92.1078 125C89.6251 125 87.3384 124.379 85.2478 123.138C83.2224 121.897 81.5891 120.263 80.3478 118.238C79.1064 116.147 78.4858 113.861 78.4858 111.378V103.342H91.4218V110.79C91.4218 111.117 91.5198 111.411 91.7158 111.672C91.9771 111.868 92.2711 111.966 92.5978 111.966H134.738C135.064 111.966 135.358 111.868 135.62 111.672C135.881 111.411 136.012 111.117 136.012 110.79V54.44H149.046V111.378C149.046 113.861 148.425 116.147 147.184 118.238C145.942 120.263 144.276 121.897 142.186 123.138C140.16 124.379 137.906 125 135.424 125H92.1078ZM160.245 125V68.062C160.245 65.5793 160.865 63.3253 162.107 61.3C163.348 59.2093 164.981 57.5433 167.007 56.302C169.097 55.0607 171.384 54.44 173.867 54.44H217.085C219.567 54.44 221.854 55.0607 223.945 56.302C226.035 57.5433 227.701 59.2093 228.943 61.3C230.184 63.3253 230.805 65.5793 230.805 68.062V125H217.771V101.284H173.181V125H160.245ZM173.181 88.348H217.771V68.65C217.771 68.3233 217.64 68.062 217.379 67.866C217.117 67.6047 216.823 67.474 216.497 67.474H174.357C174.03 67.474 173.736 67.6047 173.475 67.866C173.279 68.062 173.181 68.3233 173.181 68.65V88.348ZM298.222 125L276.956 99.618H293.91L312.334 121.374V125H298.222ZM241.97 125V54.538H298.81C301.293 54.538 303.58 55.1587 305.67 56.4C307.761 57.6413 309.427 59.3073 310.668 61.398C311.91 63.4233 312.53 65.6773 312.53 68.16V87.172C312.53 89.6547 311.91 91.9413 310.668 94.032C309.427 96.1227 307.761 97.7887 305.67 99.03C303.58 100.206 301.293 100.794 298.81 100.794L254.906 100.892V125H241.97ZM256.082 87.76H298.222C298.549 87.76 298.843 87.662 299.104 87.466C299.366 87.27 299.496 87.0087 299.496 86.682V68.65C299.496 68.3233 299.366 68.062 299.104 67.866C298.843 67.6047 298.549 67.474 298.222 67.474H256.082C255.756 67.474 255.462 67.6047 255.2 67.866C255.004 68.062 254.906 68.3233 254.906 68.65V86.682C254.906 87.0087 255.004 87.27 255.2 87.466C255.462 87.662 255.756 87.76 256.082 87.76Z" fill="white"/>
<circle cx="346" cy="119" r="6" fill="#AAFF00"/>
<ellipse cx="365.5" cy="119" rx="5.5" ry="6" fill="#AAFF00"/>
</g>
<defs>
<clipPath id="clip0_0_1">
<rect width="397" height="132" fill="white"/>
</clipPath>
</defs>
</svg>
